<svg width="109" height="43" viewBox="0 0 109 43" fill="none" xmlns="http://www.w3.org/2000/svg">
<path d="M1.86816 0.359375H4.59668L8.61426 11.8428L12.6318 0.359375H15.3604L9.70996 16H7.51855L1.86816 0.359375ZM0.396484 0.359375H3.11426L3.6084 11.5527V16H0.396484V0.359375ZM14.1143 0.359375H16.8428V16H13.6201V11.5527L14.1143 0.359375ZM30.1631 13.4863V16H21.8379V13.4863H30.1631ZM22.8906 0.359375V16H19.668V0.359375H22.8906ZM29.0781 6.72949V9.17871H21.8379V6.72949H29.0781ZM30.1523 0.359375V2.88379H21.8379V0.359375H30.1523ZM36.8447 16H33.4395L33.4609 13.4863H36.8447C37.6898 13.4863 38.4023 13.2965 38.9824 12.917C39.5625 12.5303 39.9993 11.9681 40.293 11.2305C40.5938 10.4928 40.7441 9.60124 40.7441 8.55566V7.79297C40.7441 6.99089 40.6582 6.28548 40.4863 5.67676C40.3216 5.06803 40.0745 4.55599 39.7451 4.14062C39.4157 3.72526 39.0111 3.41374 38.5312 3.20605C38.0514 2.99121 37.5 2.88379 36.877 2.88379H33.375V0.359375H36.877C37.9225 0.359375 38.8786 0.538411 39.7451 0.896484C40.6188 1.2474 41.3743 1.75228 42.0117 2.41113C42.6491 3.06999 43.1396 3.85775 43.4834 4.77441C43.8343 5.68392 44.0098 6.69727 44.0098 7.81445V8.55566C44.0098 9.66569 43.8343 10.679 43.4834 11.5957C43.1396 12.5124 42.6491 13.3001 42.0117 13.959C41.3815 14.6107 40.626 15.1156 39.7451 15.4736C38.8714 15.8245 37.9046 16 36.8447 16ZM35.2656 0.359375V16H32.043V0.359375H35.2656ZM49.7783 0.359375V16H46.5664V0.359375H49.7783ZM61.8633 10.8115H65.0752C65.0107 11.8643 64.7207 12.7988 64.2051 13.6152C63.6966 14.4316 62.984 15.069 62.0674 15.5273C61.1579 15.9857 60.0622 16.2148 58.7803 16.2148C57.7777 16.2148 56.8789 16.043 56.084 15.6992C55.2891 15.3483 54.6087 14.847 54.043 14.1953C53.4844 13.5436 53.0583 12.7559 52.7646 11.832C52.471 10.9082 52.3242 9.87337 52.3242 8.72754V7.64258C52.3242 6.49674 52.4746 5.46191 52.7754 4.53809C53.0833 3.6071 53.5202 2.81576 54.0859 2.16406C54.6589 1.51237 55.3428 1.01107 56.1377 0.660156C56.9326 0.309245 57.8206 0.133789 58.8018 0.133789C60.1051 0.133789 61.2044 0.370117 62.0996 0.842773C63.002 1.31543 63.7002 1.96712 64.1943 2.79785C64.6956 3.62858 64.9964 4.57389 65.0967 5.63379H61.874C61.8382 5.00358 61.7129 4.47005 61.498 4.0332C61.2832 3.58919 60.9574 3.25618 60.5205 3.03418C60.0908 2.80501 59.5179 2.69043 58.8018 2.69043C58.2646 2.69043 57.7956 2.79069 57.3945 2.99121C56.9935 3.19173 56.6569 3.49609 56.3848 3.9043C56.1126 4.3125 55.9085 4.82812 55.7725 5.45117C55.6436 6.06706 55.5791 6.79036 55.5791 7.62109V8.72754C55.5791 9.53678 55.64 10.2493 55.7617 10.8652C55.8835 11.474 56.0697 11.9896 56.3203 12.4121C56.5781 12.8275 56.9076 13.1426 57.3086 13.3574C57.7168 13.5651 58.2074 13.6689 58.7803 13.6689C59.4535 13.6689 60.0085 13.5615 60.4453 13.3467C60.8822 13.1318 61.2152 12.8132 61.4443 12.3906C61.6807 11.9681 61.8203 11.4417 61.8633 10.8115ZM73.5508 3.03418L69.2969 16H65.8701L71.6816 0.359375H73.8623L73.5508 3.03418ZM77.085 16L72.8203 3.03418L72.4766 0.359375H74.6787L80.5225 16H77.085ZM76.8916 10.1777V12.7021H68.6309V10.1777H76.8916ZM92.0273 13.4863V16H84.1533V13.4863H92.0273ZM85.1953 0.359375V16H81.9727V0.359375H85.1953ZM0.396484 26.3594H6.22949C7.42546 26.3594 8.45312 26.5384 9.3125 26.8965C10.179 27.2546 10.8451 27.7845 11.3105 28.4863C11.776 29.1882 12.0088 30.0511 12.0088 31.0752C12.0088 31.9131 11.8656 32.6328 11.5791 33.2344C11.2998 33.8288 10.9023 34.3265 10.3867 34.7275C9.87826 35.1214 9.28027 35.4365 8.59277 35.6729L7.57227 36.21H2.50195L2.48047 33.6963H6.25098C6.81673 33.6963 7.28581 33.596 7.6582 33.3955C8.0306 33.195 8.3099 32.9157 8.49609 32.5576C8.68945 32.1995 8.78613 31.7842 8.78613 31.3115C8.78613 30.8102 8.69303 30.377 8.50684 30.0117C8.32064 29.6465 8.03776 29.3672 7.6582 29.1738C7.27865 28.9805 6.80241 28.8838 6.22949 28.8838H3.61914V42H0.396484V26.3594ZM9.14062 42L5.57422 35.0283L8.97949 35.0068L12.5889 41.8496V42H9.14062ZM24.9854 39.4863V42H16.6602V39.4863H24.9854ZM17.7129 26.3594V42H14.4902V26.3594H17.7129ZM23.9004 32.7295V35.1787H16.6602V32.7295H23.9004ZM24.9746 26.3594V28.8838H16.6602V26.3594H24.9746ZM35.0078 37.9072C35.0078 37.6279 34.9648 37.3773 34.8789 37.1553C34.8001 36.9261 34.6497 36.7184 34.4277 36.5322C34.2057 36.3389 33.8942 36.1491 33.4932 35.9629C33.0921 35.7767 32.5729 35.5833 31.9355 35.3828C31.2266 35.1536 30.5534 34.8958 29.916 34.6094C29.2858 34.3229 28.7272 33.9899 28.2402 33.6104C27.7604 33.2236 27.3809 32.776 27.1016 32.2676C26.8294 31.7591 26.6934 31.1683 26.6934 30.4951C26.6934 29.8434 26.8366 29.2526 27.123 28.7227C27.4095 28.1855 27.8105 27.7272 28.3262 27.3477C28.8418 26.9609 29.4505 26.6637 30.1523 26.4561C30.8613 26.2484 31.6383 26.1445 32.4834 26.1445C33.6364 26.1445 34.6426 26.3522 35.502 26.7676C36.3613 27.1829 37.0273 27.7523 37.5 28.4756C37.9798 29.1989 38.2197 30.026 38.2197 30.957H35.0186C35.0186 30.4987 34.9219 30.0977 34.7285 29.7539C34.5423 29.403 34.2559 29.1273 33.8691 28.9268C33.4896 28.7262 33.0098 28.626 32.4297 28.626C31.8711 28.626 31.4056 28.7119 31.0332 28.8838C30.6608 29.0485 30.3815 29.2741 30.1953 29.5605C30.0091 29.8398 29.916 30.1549 29.916 30.5059C29.916 30.7708 29.9805 31.0107 30.1094 31.2256C30.2454 31.4404 30.446 31.641 30.7109 31.8271C30.9759 32.0133 31.3018 32.1888 31.6885 32.3535C32.0752 32.5182 32.5228 32.6794 33.0312 32.8369C33.8835 33.0947 34.6318 33.3848 35.2764 33.707C35.9281 34.0293 36.4723 34.391 36.9092 34.792C37.346 35.193 37.6755 35.6478 37.8975 36.1562C38.1195 36.6647 38.2305 37.2412 38.2305 37.8857C38.2305 38.5661 38.098 39.1748 37.833 39.7119C37.568 40.249 37.1849 40.7038 36.6836 41.0762C36.1823 41.4486 35.5843 41.7314 34.8896 41.9248C34.195 42.1182 33.418 42.2148 32.5586 42.2148C31.7852 42.2148 31.0225 42.1146 30.2705 41.9141C29.5186 41.7064 28.8346 41.3949 28.2188 40.9795C27.61 40.5641 27.123 40.0342 26.7578 39.3896C26.3926 38.7451 26.21 37.9824 26.21 37.1016H29.4434C29.4434 37.5885 29.5186 38.0003 29.6689 38.3369C29.8193 38.6735 30.0306 38.9456 30.3027 39.1533C30.582 39.361 30.9115 39.5114 31.291 39.6045C31.6777 39.6976 32.1003 39.7441 32.5586 39.7441C33.1172 39.7441 33.5755 39.6654 33.9336 39.5078C34.2988 39.3503 34.5674 39.1318 34.7393 38.8525C34.9183 38.5732 35.0078 38.2581 35.0078 37.9072ZM50.917 39.4863V42H42.5918V39.4863H50.917ZM43.6445 26.3594V42H40.4219V26.3594H43.6445ZM49.832 32.7295V35.1787H42.5918V32.7295H49.832ZM50.9062 26.3594V28.8838H42.5918V26.3594H50.9062ZM59.1562 29.0342L54.9023 42H51.4756L57.2871 26.3594H59.4678L59.1562 29.0342ZM62.6904 42L58.4258 29.0342L58.082 26.3594H60.2842L66.1279 42H62.6904ZM62.4971 36.1777V38.7021H54.2363V36.1777H62.4971ZM67.5781 26.3594H73.4111C74.6071 26.3594 75.6348 26.5384 76.4941 26.8965C77.3607 27.2546 78.0267 27.7845 78.4922 28.4863C78.9577 29.1882 79.1904 30.0511 79.1904 31.0752C79.1904 31.9131 79.0472 32.6328 78.7607 33.2344C78.4814 33.8288 78.084 34.3265 77.5684 34.7275C77.0599 35.1214 76.4619 35.4365 75.7744 35.6729L74.7539 36.21H69.6836L69.6621 33.6963H73.4326C73.9984 33.6963 74.4674 33.596 74.8398 33.3955C75.2122 33.195 75.4915 32.9157 75.6777 32.5576C75.8711 32.1995 75.9678 31.7842 75.9678 31.3115C75.9678 30.8102 75.8747 30.377 75.6885 30.0117C75.5023 29.6465 75.2194 29.3672 74.8398 29.1738C74.4603 28.9805 73.984 28.8838 73.4111 28.8838H70.8008V42H67.5781V26.3594ZM76.3223 42L72.7559 35.0283L76.1611 35.0068L79.7705 41.8496V42H76.3223ZM90.7383 36.8115H93.9502C93.8857 37.8643 93.5957 38.7988 93.0801 39.6152C92.5716 40.4316 91.859 41.069 90.9424 41.5273C90.0329 41.9857 88.9372 42.2148 87.6553 42.2148C86.6527 42.2148 85.7539 42.043 84.959 41.6992C84.1641 41.3483 83.4837 40.847 82.918 40.1953C82.3594 39.5436 81.9333 38.7559 81.6396 37.832C81.346 36.9082 81.1992 35.8734 81.1992 34.7275V33.6426C81.1992 32.4967 81.3496 31.4619 81.6504 30.5381C81.9583 29.6071 82.3952 28.8158 82.9609 28.1641C83.5339 27.5124 84.2178 27.0111 85.0127 26.6602C85.8076 26.3092 86.6956 26.1338 87.6768 26.1338C88.9801 26.1338 90.0794 26.3701 90.9746 26.8428C91.877 27.3154 92.5752 27.9671 93.0693 28.7979C93.5706 29.6286 93.8714 30.5739 93.9717 31.6338H90.749C90.7132 31.0036 90.5879 30.4701 90.373 30.0332C90.1582 29.5892 89.8324 29.2562 89.3955 29.0342C88.9658 28.805 88.3929 28.6904 87.6768 28.6904C87.1396 28.6904 86.6706 28.7907 86.2695 28.9912C85.8685 29.1917 85.5319 29.4961 85.2598 29.9043C84.9876 30.3125 84.7835 30.8281 84.6475 31.4512C84.5186 32.0671 84.4541 32.7904 84.4541 33.6211V34.7275C84.4541 35.5368 84.515 36.2493 84.6367 36.8652C84.7585 37.474 84.9447 37.9896 85.1953 38.4121C85.4531 38.8275 85.7826 39.1426 86.1836 39.3574C86.5918 39.5651 87.0824 39.6689 87.6553 39.6689C88.3285 39.6689 88.8835 39.5615 89.3203 39.3467C89.7572 39.1318 90.0902 38.8132 90.3193 38.3906C90.5557 37.9681 90.6953 37.4417 90.7383 36.8115ZM106.497 32.7295V35.2432H98.333V32.7295H106.497ZM99.2891 26.3594V42H96.0664V26.3594H99.2891ZM108.796 26.3594V42H105.584V26.3594H108.796Z" fill="#009FBE"/>
</svg>
